<?xml version="1.0" encoding="UTF-8" standalone="no"?>
<svg
   xmlns:dc="http://purl.org/dc/elements/1.1/"
   xmlns:cc="http://creativecommons.org/ns#"
   xmlns:rdf="http://www.w3.org/1999/02/22-rdf-syntax-ns#"
   xmlns:svg="http://www.w3.org/2000/svg"
   xmlns="http://www.w3.org/2000/svg"
   xmlns:sodipodi="http://sodipodi.sourceforge.net/DTD/sodipodi-0.dtd"
   xmlns:inkscape="http://www.inkscape.org/namespaces/inkscape"
   width="2130"
   height="312"
   viewBox="0 0 1704 249.6"
   version="1.1"
   id="svg3029"
   inkscape:version="0.48.5 r10040"
   sodipodi:docname="logo.svg">
  <metadata
     id="metadata3071">
    <rdf:RDF>
      <cc:Work
         rdf:about="">
        <dc:format>image/svg+xml</dc:format>
        <dc:type
           rdf:resource="http://purl.org/dc/dcmitype/StillImage" />
        <dc:title></dc:title>
      </cc:Work>
    </rdf:RDF>
  </metadata>
  <defs
     id="defs3069" />
  <sodipodi:namedview
     pagecolor="#ffffff"
     bordercolor="#666666"
     borderopacity="1"
     objecttolerance="10"
     gridtolerance="10"
     guidetolerance="10"
     inkscape:pageopacity="0"
     inkscape:pageshadow="2"
     inkscape:window-width="1680"
     inkscape:window-height="988"
     id="namedview3067"
     showgrid="true"
     inkscape:zoom="0.53760001"
     inkscape:cx="1072.6114"
     inkscape:cy="-34.327313"
     inkscape:window-x="-8"
     inkscape:window-y="-8"
     inkscape:window-maximized="1"
     inkscape:current-layer="svg3029">
    <inkscape:grid
       type="xygrid"
       id="grid3073"
       empspacing="5"
       visible="true"
       enabled="true"
       snapvisiblegridlinesonly="true" />
  </sodipodi:namedview>
  <path
     d="m 1185.2,4 c 9.08,-0.99 19.19,-0.85 26.96,4.62 7.59,5.56 8.77,16.83 4.77,24.88 -3.66,6.88 -11.85,9.45 -19.14,10.05 -8.57,0.56 -18.14,0.23 -25.12,-5.43 -6.28,-5.17 -6.82,-14.42 -4.82,-21.73 2.27,-7.52 10.1,-11.35 17.35,-12.39 z"
     id="path3033"
     inkscape:connector-curvature="0"
     style="fill:#f9f9f9" />
  <path
     d="m 1083.88,13.12 c 3.27,-4.62 9.54,-4.1 14.46,-3.22 3.72,0.81 5.17,4.79 5.01,8.22 0.06,14.26 0,28.53 0.02,42.79 7.5,0.15 15.02,-0.31 22.51,0.23 4.01,0.16 7.72,3.04 8.43,7.07 0.5,4.04 0.88,8.95 -2.3,12.05 -2.1,2.16 -5.3,2.47 -8.13,2.53 -6.84,0.03 -13.67,-0.03 -20.5,0 -0.01,28.79 -0.01,57.59 -0.01,86.38 0.05,3.84 0.52,8.29 3.61,10.98 3.33,2.2 8.14,1.97 11.26,-0.56 3.51,-2.82 5.32,-7.28 9.06,-9.87 3.75,-2.45 8.92,-3.09 12.91,-0.82 2.84,1.75 5.1,4.73 5.31,8.15 0.62,5.47 -3.06,10.17 -6.85,13.66 -6.9,6.5 -16.54,8.88 -25.7,9.82 -9.75,0.4 -19.55,0.6 -29.28,-0.09 -7.72,-2.34 -15.22,-6.77 -19.2,-14.02 -4.32,-6.59 -3.83,-14.76 -3.8,-22.28 0.01,-27.12 0,-54.24 0.01,-81.36 -5.39,-0.19 -10.85,0.48 -16.18,-0.44 -4.22,-0.7 -6.85,-5.08 -6.37,-9.18 -0.63,-5.7 4.17,-10.78 9.62,-11.65 7.1,-1.23 15.04,-0.73 21,-5.51 5.31,-4.7 6.41,-12.13 7.73,-18.73 1.78,-8.17 2.3,-17.17 7.38,-24.15 z"
     id="path3035"
     inkscape:connector-curvature="0"
     style="fill:#f9f9f9" />
  <path
     d="m 1609.62,4.75 c 9.05,0 18.1,0 27.16,0 0.03,22.95 0,45.9 0.02,68.85 21.77,0.03 43.54,0.01 65.32,0.02 l 0,26.64 c -21.78,0.01 -43.55,-0.03 -65.33,0.02 -0.01,23.03 0.04,46.06 -0.02,69.09 -9.05,0 -18.1,0 -27.14,0 -0.05,-23.04 -0.01,-46.08 -0.02,-69.11 -22.29,-0.01 -44.58,0 -66.87,0 -0.03,-8.88 -0.01,-17.76 0,-26.64 22.28,-0.01 44.57,0 66.86,0 0.02,-22.96 -0.01,-45.91 0.02,-68.87 z"
     id="path3037"
     inkscape:connector-curvature="0"
     style="fill:#f9f9f9" />
  <path
     style="fill:#f9f9f9"
     d="M 854 19.3125 C 852.17742 19.306519 850.35156 19.321875 848.53125 19.34375 C 819.79375 19.34375 791.06875 19.33125 762.34375 19.34375 C 757.63125 19.38125 752.325 20.475 749.625 24.75 C 746.0375 30.5625 748.33125 39.3625 754.71875 42.1875 C 758.68125 44.45 764.90625 46.45625 764.28125 52.15625 C 764.33125 107.18125 764.325 162.19375 764.3125 217.21875 C 764.65 219.80625 763.325 222.2375 761.0625 223.5 C 756.1125 226.6125 749.025 227.80625 746.8125 233.96875 C 745.6625 238.18125 745.74375 243.4875 749.15625 246.6875 C 752.70625 249.925 757.825 250.10625 762.375 250.03125 C 783.6 249.98125 804.80625 249.99375 826.03125 250.03125 C 830.20625 250.05625 834.81875 249.4875 838.03125 246.5 C 842.35625 242.275 842.23125 234.55625 838.03125 230.28125 C 834.23125 226.56875 828.65625 225.70625 824.59375 222.40625 C 822.64375 220.85625 822.8375 218.2 822.75 216 C 822.7625 198.1375 822.75 180.2375 822.75 162.375 C 839.7625 162.425 856.875 162.4875 873.75 160.125 C 895.8875 156.925 919.025 150.10625 935 133.59375 C 947.2875 121.53125 953.16875 104.14375 953.40625 87.15625 C 954.33125 71.85625 949.03125 56.03125 938.03125 45.15625 C 925.86875 32.60625 908.94375 26.0375 892.09375 22.6875 C 879.55937 20.160938 866.75808 19.35437 854 19.3125 z M 837.59375 46.375 C 840.06897 46.353906 842.57187 46.548437 844.90625 46.5625 C 858.43125 47.2625 873.275 50.0375 882.875 60.4375 C 892.8 71.85 893.225 88.3 890.5 102.4375 C 888.2375 113.8125 880.2625 123.775 869.5 128.1875 C 859.425 132.925 848.175 132.9375 837.3125 133.75 C 832.3875 133.6875 827.44375 133.64375 822.53125 133.71875 C 822.21875 111.54375 822.5 89.35 822.375 67.1875 C 822.5125 61.35 821.9375 54.53125 826.3125 49.96875 C 829.39844 47.023438 833.46838 46.410156 837.59375 46.375 z "
     transform="scale(0.8,0.8)"
     id="path3039" />
  <path
     d="m 11.43,21.71 c 2.66,-2.64 6.64,-3 10.19,-3.05 38.35,0.09 76.7,-0.1 115.06,0.1 4.21,0.67 8.71,0.61 12.51,2.82 3.97,2.26 5.89,6.92 6.01,11.33 0.27,6.71 1.19,13.41 0.89,20.14 -0.16,3.46 -2.47,7.47 -6.32,7.51 -3.51,0.56 -6.99,-0.78 -9.62,-3.06 -4.64,-4.07 -8.04,-9.3 -12.43,-13.61 -4,-3.75 -9.79,-4.52 -15.04,-4.52 -10.46,-0.04 -20.92,-0.12 -31.38,0.03 -3.91,0 -8.37,1.09 -10.63,4.57 -1.95,3.65 -2.05,7.93 -2.25,11.96 -0.14,13.11 -0.03,26.22 -0.06,39.34 14.77,0.01 29.55,0.1 44.33,-0.06 3.29,-0.91 6.67,-1.79 9.53,-3.74 2.88,-1.82 5.83,-4.36 9.5,-3.78 4.14,0.27 7.33,4.03 7.47,8.09 0.52,7.06 0.14,14.16 0.23,21.24 -0.02,4.12 -1.08,9.5 -5.68,10.74 -3.32,1.36 -7,0.02 -9.49,-2.34 -3,-2.79 -6.66,-4.67 -10.56,-5.83 -15.11,-0.54 -30.23,-0.17 -45.34,-0.22 0.01,16.86 0,33.71 0,50.57 0.14,3.1 0.06,6.65 2.22,9.13 2.37,2.33 5.98,2.43 9.09,2.53 13.67,-0.01 27.35,0.03 41.02,-0.02 5.03,-0.19 10.58,-0.67 14.54,-4.15 5.46,-4.82 9.24,-11.3 15.02,-15.79 4.26,-3.3 11.05,-3.17 14.79,0.88 1.62,1.73 1.4,4.25 1.44,6.44 -0.13,7.02 -0.75,14.02 -1.36,21.01 -0.32,3.23 -1.29,6.6 -3.79,8.83 -3.92,3.61 -9.59,4.13 -14.67,4.39 -42.64,0.02 -85.28,0 -127.93,0.01 -3.69,0.01 -8,-0.92 -10.02,-4.34 -2.88,-4.14 -1.23,-10.29 2.97,-12.87 3.49,-2.13 7.76,-3.14 10.42,-6.47 -0.03,-44.85 0.01,-89.7 -0.02,-134.55 0.42,-4.83 -4.85,-6.27 -8.14,-8.26 -5.36,-2.6 -6.81,-10.84 -2.5,-15 z"
     id="path3041"
     inkscape:connector-curvature="0"
     style="fill:#f9f9f9" />
  <path
     style="fill:#f9f9f9"
     d="M 1911.75 59.9375 C 1906.7266 60.207178 1902.9437 64.676563 1898.875 67.3125 C 1886.1125 76.5875 1869.3125 78.125 1854.1875 75.1875 C 1829.8 72.2375 1802.7313 76.81875 1784.3438 94.21875 C 1768.0812 109.41875 1761.7688 132.275 1761.2188 153.9375 C 1760.5063 175.0375 1766.5687 197.1875 1781.4688 212.6875 C 1797.2562 229.7375 1821.3438 236.75625 1844.0938 235.84375 C 1850.8187 235.31875 1857.8312 235.9375 1863.8438 239.3125 C 1874.7687 244.7125 1879.7688 258.5625 1876.4688 270 C 1873.5688 278.6875 1865.0125 283.94375 1856.5 285.96875 C 1843.9875 288.85625 1830.5938 288.71875 1818.4062 284.53125 C 1809.6312 281.54375 1802.3125 273.43125 1802.125 263.90625 C 1801.6875 259.06875 1803.2188 253.4875 1799.7812 249.4375 C 1795.3563 244.1375 1787.8563 243.825 1781.5312 244.375 C 1772.8188 244.8875 1765.1063 250.83125 1761.1562 258.40625 C 1757.2937 266.08125 1758.3125 275.2 1761.25 283 C 1764.875 291.525 1773.0125 297.05 1781.25 300.625 C 1795.9375 306.8125 1812.0125 308.6 1827.8125 309.375 C 1845.7625 309.8875 1863.9313 309.0875 1881.4062 304.625 C 1898.0188 300.3375 1915.5375 291.5875 1922.6875 275 C 1928.5375 261.275 1925.9125 244.35625 1916.375 232.90625 C 1910.5625 225.99375 1902.1375 222.19375 1893.8125 219.28125 C 1910.1375 207.24375 1919.9438 187.69375 1921.5938 167.65625 C 1923.7313 142.05625 1917.625 114.39375 1899.3125 95.46875 C 1906.3625 93.29375 1914.0312 92.63125 1920.5938 89.09375 C 1930.8438 81.51875 1926.325 62.71875 1914 60.09375 C 1913.2281 59.942188 1912.4676 59.898975 1911.75 59.9375 z M 1842.625 100.46875 C 1846.9047 100.38027 1851.1844 101.74688 1854.1562 105 C 1861.7312 112.9375 1863.675 124.34375 1865.3125 134.78125 C 1867.05 149.74375 1867.4563 164.9375 1865.2812 179.875 C 1864.0813 186.9625 1861.9875 194.13125 1857.625 199.96875 C 1851.775 207.99375 1839.2687 210.3875 1831.0938 204.625 C 1824.1063 199.7125 1821.925 190.8625 1820.4375 182.9375 C 1818.0875 167.4875 1818.5625 151.75 1820.125 136.25 C 1821.375 126.9625 1823.0875 117.39375 1828.1875 109.34375 C 1830.5375 105.54375 1834.05 102.39375 1838.375 101.03125 C 1839.7469 100.6875 1841.1984 100.49824 1842.625 100.46875 z "
     transform="scale(0.8,0.8)"
     id="path3045" />
  <path
     d="m 970.39,59.47 c 4.34,-0.35 8.71,-0.83 13.06,-0.14 11.15,0.48 22.71,2.45 32.25,8.59 5.37,3.6 10.15,9.42 9.78,16.23 0.1,4.17 -1.65,8.5 -5.13,10.93 -3.53,2.44 -8.86,2.5 -11.94,-0.71 -3.62,-3.7 -6.2,-8.35 -10.32,-11.58 -4.83,-4.16 -11.19,-6.23 -17.52,-6.29 -6.17,-0.12 -12.99,0.51 -17.77,4.84 -5.14,4.83 -4.81,13.77 -0.15,18.82 3.3,3.47 7.9,5.28 12.36,6.77 10.91,3.52 22.56,4.77 32.94,9.89 9.96,4.59 19.12,12.46 22.28,23.3 2.32,8.18 1.49,17 -0.71,25.11 -3.6,12.57 -12.62,23.28 -24.02,29.54 -12.38,6.86 -26.83,9.03 -40.83,8.69 -11.32,-0.56 -22.86,-2.3 -33.15,-7.29 -7.53,-3.62 -14.77,-9.08 -17.99,-17.05 -2.26,-5.47 -2.33,-12.59 2.03,-17.06 4.1,-4.8 12.26,-4.83 16.63,-0.37 3.19,3.23 5.36,7.27 8.17,10.82 5.19,6.95 13.69,11.25 22.35,11.4 6.43,0.29 13.45,0.12 18.81,-3.94 3.99,-2.82 5.94,-7.99 5.15,-12.77 -0.89,-7.26 -5.96,-13.4 -12.18,-16.92 -9.11,-5.52 -20.11,-5.69 -29.92,-9.31 -10.15,-3.52 -20.45,-8.95 -26.16,-18.44 -6.68,-11.19 -5.58,-25.9 0.87,-36.94 5.61,-9.89 15.39,-16.75 25.8,-20.88 8.07,-3.1 16.67,-4.91 25.31,-5.24 z"
     id="path3047"
     inkscape:connector-curvature="0"
     style="fill:#f9f9f9" />
  <path
     d="m 1203.12,58.86 c 3.35,-0.85 7.61,-1.17 10.2,1.59 2.66,2.43 3,6.26 3.01,9.65 0.01,35.39 -0.07,70.79 0.03,106.18 -0.08,3.43 3.49,4.92 6.09,6.15 3.95,1.44 7.37,5.24 6.54,9.71 -0.19,4.68 -5.05,7.32 -9.28,7.25 -15.35,0.06 -30.7,-0.04 -46.05,0.04 -3.43,0.04 -7.24,0.08 -10.03,-2.22 -3.18,-2.16 -3.5,-6.81 -2.04,-10.05 2.23,-4.46 7.92,-4.69 11.21,-7.96 1.04,-1.81 0.93,-4.02 1.03,-6.04 -0.04,-16.67 -0.01,-33.34 -0.02,-50.01 -0.3,-9.92 0.81,-19.98 -1.05,-29.8 -1.11,-5.17 -6.15,-7.51 -10.03,-10.32 -2.32,-1.5 -2.94,-4.79 -1.63,-7.15 1.12,-2.78 4.19,-3.7 6.75,-4.64 11.78,-4.05 23.49,-8.34 35.27,-12.38 z"
     id="path3049"
     inkscape:connector-curvature="0"
     style="fill:#f9f9f9" />
  <path
     d="m 1277.29,60 c 3.16,-1.33 6.52,-3.01 10.06,-2.22 3.76,0.81 6.22,4.61 6.46,8.3 0.32,4.59 0.04,9.19 0.18,13.79 5.22,-5.51 10.77,-10.95 17.69,-14.3 10.03,-5.02 21.55,-6.35 32.64,-5.71 9.03,0.84 18.42,3.51 24.98,10.11 6.69,6.38 9.94,15.43 11.66,24.31 2.57,12.44 1.54,25.19 1.75,37.8 0.08,14.93 -0.17,29.86 0.11,44.78 1.2,5.83 9.54,4.83 11.75,10.1 2.97,5.3 -1.18,12.29 -7.23,12.31 -14.34,0.34 -28.71,0.01 -43.06,0.15 -3.67,-0.03 -7.57,0.33 -10.94,-1.35 -4.68,-2.42 -5.41,-9.83 -1.29,-13.12 2.76,-2.64 7.71,-4.13 7.44,-8.77 0.1,-22.66 0.04,-45.32 0.03,-67.97 -0.33,-7.18 -0.33,-14.88 -4.11,-21.24 -2.43,-4.18 -7.57,-5.84 -12.16,-5.63 -6.71,-0.14 -13.32,3.46 -16.69,9.28 -4.56,7.29 -5.09,16.16 -5.05,24.53 -0.01,19.69 0.01,39.37 -0.02,59.06 0.04,1.61 0,3.28 0.6,4.81 2.02,3.13 5.92,4.24 8.2,7.14 2.35,2.97 2.11,7.62 -0.48,10.37 -2.28,2.09 -5.45,2.92 -8.47,2.88 -14.69,0 -29.38,-0.03 -44.07,0.02 -3.3,0.01 -6.99,-0.38 -9.43,-2.83 -2.45,-2.78 -2.82,-7.25 -0.71,-10.33 2.77,-4.24 8.91,-4.18 11.5,-8.65 -0.2,-26.5 0.01,-53.01 -0.1,-79.52 -0.23,-3.29 -0.65,-6.79 -2.57,-9.56 -2.55,-3.42 -7.09,-4.28 -10.07,-7.16 -1.82,-3.9 0.7,-8.57 4.58,-9.97 8.89,-3.91 17.91,-7.54 26.82,-11.41 z"
     id="path3051"
     inkscape:connector-curvature="0"
     style="fill:#f9f9f9" />
  <path
     style="fill:#f9f9f9"
     d="M 293.5 73.46875 C 277.12805 73.52088 260.61953 74.982813 245.375 81.21875 C 237.775 84.44375 230.04375 89.425 226.84375 97.375 C 225.01875 103.5875 226.6125 111.16875 231.9375 115.21875 C 236.7 119.16875 244.01875 119.4875 249.09375 115.9375 C 255.81875 111.35 261.50625 105.19375 269.03125 101.84375 C 277.10625 98.18125 286.1875 98.20625 294.875 98.53125 C 299.8875 100.00625 305.175 101.95 308.375 106.375 C 315 115.0625 315.66875 126.51875 315.46875 137.03125 C 301.80625 137.94375 288.11875 139.25 274.78125 142.5 C 259.49375 146.1625 244.175 152.25 232.75 163.375 C 218.05 177.75 213.61875 200.475 218.71875 220 C 221.50625 231.2125 229.0375 241.1375 239.1875 246.6875 C 249.1625 252.1875 260.75625 254 272.03125 253.75 C 285.63125 253.925 299.825 252.0375 311.625 244.8125 C 316.825 241.6375 320.90625 237.03125 324.71875 232.34375 C 325.11875 236.40625 324.74375 240.7125 326.34375 244.5625 C 328.08125 248.0625 332.36875 248.4 335.71875 249.3125 C 349.15625 249.225 362.59375 249.1875 376.03125 249.3125 C 378.65625 248.35 381.64375 247.725 383.59375 245.5625 C 385.05625 243.6 385.61875 241.1625 386.53125 238.9375 C 385.39375 234.925 383.6625 230.55625 379.4375 228.96875 C 375.775 226.83125 369.4875 225.75625 369.75 220.34375 C 369.4625 193.19375 369.90625 166.025 369.53125 138.875 C 369.30625 123.1125 366.7625 106.11875 356 93.84375 C 343.55 79.61875 323.725 74.93125 305.5625 74.21875 L 304.8125 73.625 C 301.06484 73.526562 297.27814 73.45672 293.5 73.46875 z M 316.65625 160.9375 C 318.01875 175.225 317.2875 189.625 316.625 203.9375 C 316.3125 212.425 311.45 221.08125 303.3125 224.28125 C 291.7375 228.90625 275.43125 225.4875 270.40625 213 C 267.10625 204 268.3625 193.725 271.75 184.9375 C 275.5875 174.95 284.625 167.74375 294.6875 164.65625 C 301.7375 162.11875 309.29375 161.8625 316.65625 160.9375 z "
     transform="scale(0.8,0.8)"
     id="path3053" />
  <path
     style="fill:#f9f9f9"
     d="M 1035.6875 77.5 C 1021.6758 77.575458 1007.6047 79.565625 994.625 84.96875 C 977.2625 91.75625 962.75 105.35625 954.9375 122.28125 C 945.775 141.21875 944.5125 162.83125 946.4375 183.46875 C 948.6375 200.94375 954.725 218.45 966.6875 231.6875 C 979.9 246.6875 999.38125 254.975 1018.9688 257.3125 C 1040.3312 260.025 1062.9688 257.58125 1082.1562 247.34375 C 1095.9938 239.98125 1107.3062 228.11875 1114.1562 214.03125 C 1123.5312 195.24375 1125.2188 173.53125 1123.0938 152.90625 C 1120.7563 131.79375 1111.7625 110.65625 1095.125 96.90625 C 1081.2625 85.10625 1063.2375 79.50625 1045.375 77.71875 C 1042.1617 77.55 1038.921 77.482587 1035.6875 77.5 z M 1035.375 102 C 1041.3058 102.04878 1047.2062 103.80547 1051.4688 108.09375 C 1057.6937 114.58125 1059.825 123.70625 1061.375 132.28125 C 1062.6 140.74375 1063.3688 149.29375 1063.4688 157.84375 C 1063.6187 174.59375 1063.85 191.55 1060.25 208 C 1058.5625 214.975 1056.3063 222.2625 1051.0938 227.4375 C 1044.8188 234.175 1034.2 235.33125 1025.875 232.21875 C 1017.075 228.61875 1012.5813 219.3125 1010.0938 210.6875 C 1005.6313 194.3375 1005.5875 177.2 1005.6875 160.375 C 1006.2125 145.9125 1006.6875 131 1012.25 117.4375 C 1015.025 110.825 1020.3 104.79375 1027.4375 102.90625 C 1029.9922 102.3125 1032.6792 101.97783 1035.375 102 z "
     transform="scale(0.8,0.8)"
     id="path3055" />
  <path
     d="m 362.64,61.5 c 15.25,-1.05 31.31,-1.43 45.59,4.86 6.78,2.92 13.31,8.08 15.33,15.48 1.87,6.54 -1.6,15.13 -8.78,16.46 -4.03,0.93 -7.82,-1.39 -10.02,-4.62 -4.96,-6.83 -11.38,-13.54 -20.1,-14.96 -7.33,-1.14 -15.59,-1.16 -22,3.04 -6,4 -6.65,12.95 -2.69,18.59 2.38,3.55 6.39,5.5 10.25,7.05 11.5,4.37 24.07,5.3 35.24,10.63 10.03,4.43 19.42,12.1 22.93,22.82 3.12,9.45 1.73,19.85 -1.47,29.09 -5.09,14.29 -17.34,25.26 -31.47,30.3 -17.33,6.2 -36.5,6.16 -54.23,1.69 -9.83,-2.71 -19.71,-7.36 -26.06,-15.62 -4.27,-5.57 -6.51,-13.6 -3.09,-20.14 2.58,-5.19 9.17,-7.47 14.53,-5.48 5.43,2.4 8.04,8.14 11.52,12.59 5.08,7.26 13.66,11.94 22.53,12.21 5.14,0.16 10.49,0.35 15.33,-1.71 4.93,-1.91 9.11,-6.55 9.18,-12.03 0.44,-8.5 -5.42,-16.05 -12.56,-20.03 -8.14,-4.86 -17.82,-5.42 -26.7,-8.2 -10.26,-3.14 -20.62,-8.01 -27.26,-16.76 -6.58,-8.51 -7.65,-20.22 -4.84,-30.38 2.62,-9.35 8.79,-17.49 16.7,-23.05 9.38,-6.81 20.76,-10.27 32.14,-11.83 z"
     id="path3057"
     inkscape:connector-curvature="0"
     style="fill:#f9f9f9" />
  <path
     d="m 434.09,64.79 c 1.84,-4.28 7.07,-4.93 11.16,-5.04 13.01,-0.03 26.02,0.02 39.04,-0.02 3.17,0.07 6.58,0.23 9.36,1.97 3.16,2.2 3.75,6.62 2.45,10.04 -1.14,3.15 -3.9,5.32 -5.39,8.27 -1.32,2.77 -0.04,5.83 0.75,8.56 7.12,19.83 14.26,39.65 21.35,59.5 1.03,2.72 1.75,5.62 3.46,8.03 1.29,0.44 2.67,0.51 4.03,0.72 6.93,-23.03 13.99,-46.03 21.02,-69.03 0.82,-2.58 0.66,-5.3 0.56,-7.96 -2.74,-2.56 -6.13,-4.2 -9.16,-6.36 -3.77,-2.73 -3.84,-9.37 0.15,-11.92 2.78,-1.75 6.23,-1.75 9.42,-1.83 7.64,0.05 15.29,-0.01 22.93,0.03 3.29,0.21 7,0.31 9.63,2.58 2.87,2.29 3.8,6.87 1.67,9.95 -2.29,3.29 -5.79,5.48 -8.23,8.65 -3.87,4.87 -5.68,10.92 -7.6,16.74 -12.4,36.89 -24.67,73.82 -37.13,110.7 -6.41,18.03 -21.51,32.48 -39.43,38.93 -8.2,2.79 -17.27,4.16 -25.68,1.47 -5.01,-1.45 -9.73,-4.92 -11.39,-10.02 -1.24,-4.84 -0.52,-10.37 2.92,-14.17 4.55,-5.04 12.04,-5.92 18.36,-4.38 7.7,1.75 16.51,2.96 23.48,-1.67 9.16,-5.9 13.82,-16.34 17.52,-26.17 -6.02,1.12 -12.66,1.75 -18.23,-1.32 -3.67,-1.84 -5.82,-5.56 -7.24,-9.25 -11.55,-29.89 -23.15,-59.77 -34.69,-89.66 -1.32,-3.26 -2.25,-6.82 -4.65,-9.5 -2.7,-3 -6.43,-4.84 -9.16,-7.81 -2.48,-2.66 -2.38,-6.78 -1.28,-10.03 z"
     id="path3059"
     inkscape:connector-curvature="0"
     style="fill:#f9f9f9" />
</svg>
